<svg height="512pt" viewBox="0 -26 512.00003 512" width="512pt" xmlns="http://www.w3.org/2000/svg"><path d="m147.542969 48.726562 1.269531 1.023438c.480469.320312 1 .578125 1.542969.765625.484375.25 1.003906.421875 1.539062.515625.5625.097656 1.132813.152344 1.707031.167969.539063-.011719 1.078126-.070313 1.609376-.167969.570312-.082031 1.121093-.253906 1.632812-.515625.542969-.1875 1.058594-.445313 1.535156-.765625l1.28125-1.023438c.769532-.816406 1.378906-1.773437 1.789063-2.816406.910156-2.066406.910156-4.421875 0-6.484375-.429688-1.035156-1.039063-1.988281-1.789063-2.816406l-1.28125-1.023437c-.476562-.324219-.992187-.582032-1.535156-.769532-.511719-.261718-1.0625-.433594-1.632812-.511718-1.089844-.257813-2.226563-.257813-3.316407 0-.535156.09375-1.054687.265624-1.539062.511718-.542969.1875-1.0625.445313-1.542969.769532l-1.269531 1.023437c-.773438.816406-1.382813 1.769531-1.792969 2.816406-.910156 2.0625-.910156 4.417969 0 6.484375.410156 1.042969 1.019531 2 1.792969 2.816406zm0 0"/><path d="m181.675781 48.726562 1.269531 1.023438c.480469.320312 1 .578125 1.546876.765625.480468.25 1 .421875 1.535156.515625.5625.097656 1.132812.152344 1.707031.167969.539063-.011719 1.078125-.070313 1.613281-.167969.566406-.082031 1.117188-.253906 1.628906-.515625.542969-.1875 1.058594-.445313 1.535157-.765625l1.28125-1.023438c.769531-.816406 1.378906-1.773437 1.792969-2.816406.90625-2.066406.90625-4.421875 0-6.484375-.433594-1.035156-1.039063-1.988281-1.792969-2.816406l-1.28125-1.023437c-.476563-.324219-.992188-.582032-1.535157-.769532-.511718-.261718-1.0625-.433594-1.628906-.511718-1.09375-.257813-2.230468-.257813-3.320312 0-.535156.09375-1.054688.265624-1.535156.511718-.546876.1875-1.066407.445313-1.546876.769532l-1.269531 1.023437c-.773437.816406-1.378906 1.769531-1.792969 2.816406-.910156 2.0625-.910156 4.417969 0 6.484375.414063 1.042969 1.019532 2 1.792969 2.816406zm0 0"/><path d="m215.808594 48.726562 1.269531 1.023438c.480469.320312 1 .578125 1.546875.765625.484375.25 1 .421875 1.535156.515625.5625.097656 1.132813.152344 1.707032.167969.539062-.011719 1.078124-.070313 1.613281-.167969.566406-.082031 1.117187-.253906 1.628906-.515625.542969-.1875 1.058594-.445313 1.535156-.765625l1.28125-1.023438c.769531-.816406 1.378907-1.773437 1.792969-2.816406.910156-2.066406.910156-4.421875 0-6.484375-.433594-1.035156-1.039062-1.988281-1.792969-2.816406l-1.28125-1.023437c-.476562-.324219-.992187-.582032-1.535156-.769532-.511719-.261718-1.0625-.433594-1.628906-.511718-1.09375-.257813-2.230469-.257813-3.320313 0-.535156.09375-1.050781.265624-1.535156.511718-.546875.1875-1.066406.445313-1.546875.769532l-1.269531 1.023437c-.773438.816406-1.378906 1.769531-1.792969 2.816406-.910156 2.0625-.910156 4.417969 0 6.484375.414063 1.042969 1.019531 2 1.792969 2.816406zm0 0"/><path d="m162.132812 136.535156h17.585938l8.015625 128c.035156 9.910156 5.789063 18.914063 14.769531 23.105469-9.914062 13.882813-8.085937 32.945313 4.285156 44.6875 12.375 11.742187 31.503907 12.574219 44.847657 1.949219 13.347656-10.625 16.824219-29.457032 8.152343-44.144532h26.554688c-3.070312 5.167969-4.707031 11.058594-4.742188 17.066407 0 18.851562 15.28125 34.132812 34.132813 34.132812s34.132813-15.28125 34.132813-34.132812c-.035157-6.007813-1.671876-11.898438-4.746094-17.066407h4.746094c4.710937 0 8.53125-3.820312 8.53125-8.53125 0-4.714843-3.820313-8.535156-8.53125-8.535156h-136.535157c-2.339843-.042968-4.570312-1.027344-6.175781-2.734375-1.605469-1.703125-2.457031-3.988281-2.355469-6.328125l-.519531-8.003906h137.050781c3.769531 0 7.09375-2.472656 8.175781-6.085938l25.601563-85.332031c.773437-2.582031.28125-5.378906-1.332031-7.542969-1.609375-2.164062-4.148438-3.4375-6.84375-3.4375h-169.054688l-1.125-18.136718c-.566406-9.003906-8.042968-16.015625-17.066406-16h-17.554688c-4.710937 0-8.53125 3.824218-8.53125 8.535156s3.820313 8.535156 8.53125 8.535156zm85.332032 170.664063c0 9.425781-7.640625 17.066406-17.066406 17.066406-9.425782 0-17.066407-7.640625-17.066407-17.066406s7.640625-17.066407 17.066407-17.066407c9.425781 0 17.066406 7.640626 17.066406 17.066407zm85.335937 0c0 9.425781-7.640625 17.066406-17.066406 17.066406s-17.066406-7.640625-17.066406-17.066406 7.640625-17.066407 17.066406-17.066407 17.066406 7.640626 17.066406 17.066407zm22.664063-136.53125-5.121094 17.066406h-102.878906c-4.710938 0-8.53125 3.820313-8.53125 8.53125 0 4.714844 3.820312 8.535156 8.53125 8.535156h97.757812l-10.238281 34.132813h-131.773437l-4.265626-68.265625zm0 0"/><path d="m486.398438 51.199219h-59.730469v-8.53125c-.03125-23.554688-19.117188-42.6406252-42.667969-42.667969h-238.933594c-23.550781.0273438-42.636718 19.113281-42.667968 42.667969v8.53125h-76.796876c-14.140624 0-25.601562 11.460937-25.601562 25.601562v358.398438c0 14.140625 11.460938 25.601562 25.601562 25.601562h460.796876c14.140624 0 25.601562-11.460937 25.601562-25.601562v-358.398438c0-14.140625-11.460938-25.601562-25.601562-25.601562zm-366.933594 34.132812h290.136718v264.535157c0 14.136718-11.464843 25.597656-25.601562 25.597656h-238.933594c-14.136718 0-25.601562-11.460938-25.601562-25.597656zm0-42.664062c0-14.140625 11.464844-25.601563 25.601562-25.601563h238.933594c14.136719 0 25.601562 11.460938 25.601562 25.601563v25.597656h-290.136718zm-17.066406 307.199219c.03125 23.550781 19.117187 42.636718 42.667968 42.667968h238.933594c23.550781-.03125 42.636719-19.117187 42.667969-42.667968v-281.601563h17.066406v375.46875h-366.933594v-375.46875h25.597657zm-85.332032 85.332031v-358.398438c0-4.714843 3.820313-8.535156 8.535156-8.535156h34.132813v375.46875h-34.132813c-4.714843 0-8.535156-3.820313-8.535156-8.535156zm477.867188 0c0 4.714843-3.820313 8.535156-8.535156 8.535156h-25.597657v-375.46875h25.597657c4.714843 0 8.535156 3.820313 8.535156 8.535156zm0 0"/><path d="m42.667969 238.933594c-4.714844 0-8.535157 3.820312-8.535157 8.53125v17.070312c0 4.710938 3.820313 8.53125 8.535157 8.53125 4.710937 0 8.53125-3.820312 8.53125-8.53125v-17.070312c0-4.710938-3.820313-8.53125-8.53125-8.53125zm0 0"/><path d="m128 426.667969h85.332031c4.714844 0 8.535157-3.820313 8.535157-8.535157 0-4.710937-3.820313-8.53125-8.535157-8.53125h-85.332031c-4.710938 0-8.535156 3.820313-8.535156 8.53125 0 4.714844 3.824218 8.535157 8.535156 8.535157zm0 0"/><path d="m247.464844 426.667969h8.535156c4.710938 0 8.535156-3.820313 8.535156-8.535157 0-4.710937-3.824218-8.53125-8.535156-8.53125h-8.535156c-4.710938 0-8.53125 3.820313-8.53125 8.53125 0 4.714844 3.820312 8.535157 8.53125 8.535157zm0 0"/></svg>