<svg height="496pt" viewBox="0 0 496 496" width="496pt" xmlns="http://www.w3.org/2000/svg"><path d="m64 128h16v16h-16zm0 0"/><path d="m96 128h16v16h-16zm0 0"/><path d="m128 128h16v16h-16zm0 0"/><path d="m472.710938 366.671875 10.808593-18.917969-5.953125-5.953125c12.1875-29.777343 18.433594-61.289062 18.433594-93.800781 0-57.175781-19.886719-112.761719-56-156.910156v-21.515625l-40-60-19.359375 29.042969c-39.671875-25.191407-85.3125-38.617188-132.640625-38.617188-77.367188 0-148.488281 34.976562-195.871094 96h-20.128906v30.207031c-20.894531 37.007813-32 79.039063-32 121.792969 0 136.742188 111.246094 248 248 248 32.503906 0 64.015625-6.246094 93.792969-18.441406l5.941406 5.953125 18.9375-10.800781c1.816406.832031 3.640625 1.601562 5.472656 2.289062l5.742188 21h44.21875l5.742187-21c1.832032-.6875 3.65625-1.449219 5.472656-2.289062l18.9375 10.800781 31.253907-31.265625-10.808594-18.917969c.832031-1.808594 1.601563-3.640625 2.289063-5.480469l21.007812-5.742187v-44.210938l-21-5.742187c-.6875-1.839844-1.457031-3.671875-2.289062-5.480469zm7.289062-118.671875c0 28.152344-4.945312 55.519531-14.71875 81.511719l-13.023438-13.023438-12.257812 6.992188v-205.511719c25.863281 38.199219 40 83.535156 40 130.03125zm-152.710938 118.671875c-.832031 1.808594-1.601562 3.640625-2.289062 5.480469l-21 5.742187v6.105469h-243.785156c-4.359375-6-8.4375-12.214844-12.214844-18.632812v-189.367188h312v147.480469l-12.257812-6.992188-31.253907 31.265625zm48.710938-286.671875h16v224h-14.113281l-1.886719 6.910156zm32 0h16v230.910156l-1.886719-6.910156h-14.113281zm9.054688-16h-34.101563l17.046875-25.574219zm-169.054688-48c44.160156 0 86.734375 12.488281 123.769531 35.921875l-11.769531 17.652344v26.425781h-287.214844c44.136719-51.015625 107.085938-80 175.214844-80zm112 96v48h-312v-48zm-328 51.503906v168.992188c-10.289062-26.207032-16-54.6875-16-84.496094 0-29.039062 5.535156-57.703125 16-84.496094zm216 316.496094c-69.816406 0-132.480469-31.039062-175.046875-80h231.046875v22.105469l21 5.742187c.6875 1.839844 1.457031 3.671875 2.289062 5.480469l-10.808593 18.917969 13.03125 13.035156c-25.992188 9.765625-53.359375 14.71875-81.511719 14.71875zm232-70.105469-17.542969 4.800781-1.289062 4.199219c-1.152344 3.707031-2.6875 7.394531-4.574219 10.953125l-2.066406 3.886719 9.039062 15.832031-13.992187 14-15.832031-9.03125-3.878907 2.050782c-3.597656 1.902343-7.296875 3.4375-10.96875 4.574218l-4.191406 1.296875-4.816406 17.542969h-19.78125l-4.808594-17.542969-4.191406-1.296875c-3.671875-1.136718-7.371094-2.671875-10.96875-4.574218l-3.878907-2.050782-15.832031 9.03125-13.992187-14 9.039062-15.832031-2.066406-3.886719c-1.886719-3.558594-3.429688-7.246094-4.574219-10.953125l-1.289062-4.199219-17.542969-4.800781v-19.789062l17.542969-4.800781 1.289062-4.199219c1.152344-3.707031 2.6875-7.394531 4.574219-10.953125l2.066406-3.886719-9.039062-15.832031 13.992187-14 15.832031 9.03125 3.878907-2.050782c3.597656-1.902343 7.296875-3.4375 10.96875-4.574218l4.191406-1.296875 4.816406-17.542969h19.78125l4.808594 17.542969 4.191406 1.296875c3.671875 1.136718 7.371094 2.671875 10.96875 4.574218l3.878907 2.050782 15.832031-9.03125 13.992187 14-9.039062 15.832031 2.066406 3.886719c1.886719 3.558594 3.429688 7.246094 4.574219 10.953125l1.289062 4.199219 17.542969 4.800781zm0 0"/><path d="m400 352c-26.472656 0-48 21.527344-48 48s21.527344 48 48 48 48-21.527344 48-48-21.527344-48-48-48zm0 80c-17.648438 0-32-14.351562-32-32s14.351562-32 32-32 32 14.351562 32 32-14.351562 32-32 32zm0 0"/><path d="m224 192h-160v80h160zm-16 64h-128v-48h128zm0 0"/><path d="m240 192h104v16h-104zm0 0"/><path d="m240 224h104v16h-104zm0 0"/><path d="m328 256h16v16h-16zm0 0"/><path d="m240 256h72v16h-72zm0 0"/><path d="m64 368h112v-80h-112zm16-64h80v48h-80zm0 0"/><path d="m192 368h112v-80h-112zm16-64h80v48h-80zm0 0"/></svg>